HIERARCHY
ROOT Hips
{
	OFFSET 0.000000 0.000000 0.000000
	CHANNELS 6 Xposition Yposition Zposition Xrotation Yrotation Zrotation
	JOINT LeftUpLeg_virtual
	{
		OFFSET 0.000000 0.000000 0.000000
		CHANNELS 3 Xrotation Yrotation Zrotation
		JOINT LeftUpLeg
		{
			OFFSET 10.205400 -3.823500 0.155100
			CHANNELS 3 Xrotation Yrotation Zrotation
			JOINT LeftLeg
			{
				OFFSET 0.708757 -12.982077 0.567790
				CHANNELS 3 Xrotation Yrotation Zrotation
				JOINT LeftFoot
				{
					OFFSET -0.708756 -10.717838 -2.184338
					CHANNELS 3 Xrotation Yrotation Zrotation
					JOINT LeftToeBase
					{
						OFFSET 0.108149 -7.191104 7.560241
						CHANNELS 3 Xrotation Yrotation Zrotation
						JOINT LeftToe_End
						{
							OFFSET 0.070230 0.081724 4.490308
							CHANNELS 3 Xrotation Yrotation Zrotation
							End Site
							{
								OFFSET 0 0 0
							}
						}
					}
				}
			}
		}
	}
	JOINT RightUpLeg_virtual
	{
		OFFSET 0.000000 0.000000 0.000000
		CHANNELS 3 Xrotation Yrotation Zrotation
		JOINT RightUpLeg
		{
			OFFSET -10.205400 -3.823500 0.005500
			CHANNELS 3 Xrotation Yrotation Zrotation
			JOINT RightLeg
			{
				OFFSET -0.708756 -12.982134 0.610632
				CHANNELS 3 Xrotation Yrotation Zrotation
				JOINT RightFoot
				{
					OFFSET 0.708754 -10.717769 -1.945823
					CHANNELS 3 Xrotation Yrotation Zrotation
					JOINT RightToeBase
					{
						OFFSET -0.108140 -7.191069 7.372968
						CHANNELS 3 Xrotation Yrotation Zrotation
						JOINT RightToe_End
						{
							OFFSET -0.070227 0.081735 4.479403
							CHANNELS 3 Xrotation Yrotation Zrotation
							End Site
							{
								OFFSET 0 0 0
							}
						}
					}
				}
			}
		}
	}
	JOINT Spine_virtual
	{
		OFFSET 0.000000 0.000000 0.000000
		CHANNELS 3 Xrotation Yrotation Zrotation
		JOINT Spine
		{
			OFFSET 0.000000 6.876099 0.125700
			CHANNELS 3 Xrotation Yrotation Zrotation
			JOINT Spine1
			{
				OFFSET 0.000000 5.730043 0.104720
				CHANNELS 3 Xrotation Yrotation Zrotation
				JOINT Spine1_split
				{
					OFFSET 0.000000 5.730043 0.104720
					CHANNELS 3 Xrotation Yrotation Zrotation
					JOINT Spine2
					{
						OFFSET 0.000000 5.730043 0.104720
						CHANNELS 3 Xrotation Yrotation Zrotation
						JOINT Neck_virtual
						{
							OFFSET 0.000000 0.000000 0.000000
							CHANNELS 3 Xrotation Yrotation Zrotation
							JOINT Neck
							{
								OFFSET 0.000000 10.314075 0.188496
								CHANNELS 3 Xrotation Yrotation Zrotation
								JOINT Head
								{
									OFFSET 0.000000 7.643700 -2.377400
									CHANNELS 3 Xrotation Yrotation Zrotation
									JOINT HeadTop_End
									{
										OFFSET 0.000000 43.788605 -13.619600
										CHANNELS 3 Xrotation Yrotation Zrotation
										End Site
										{
											OFFSET 0 0 0
										}
									}
								}
							}
						}
						JOINT LeftShoulder_virtual
						{
							OFFSET 0.000000 0.000000 0.000000
							CHANNELS 3 Xrotation Yrotation Zrotation
							JOINT LeftShoulder
							{
								OFFSET 2.196100 4.412489 0.087492
								CHANNELS 3 Xrotation Yrotation Zrotation
								JOINT LeftShoulder_split
								{
									OFFSET 2.196100 4.412489 0.087492
									CHANNELS 3 Xrotation Yrotation Zrotation
									JOINT LeftArm
									{
										OFFSET 8.771219 -2.981674 -0.026999
										CHANNELS 3 Xrotation Yrotation Zrotation
										JOINT LeftForeArm
										{
											OFFSET 8.512804 0.000000 -0.000000
											CHANNELS 3 Xrotation Yrotation Zrotation
											JOINT LeftHand
											{
												OFFSET 18.484802 0.000000 -0.000000
												CHANNELS 3 Xrotation Yrotation Zrotation
												End Site
												{
													OFFSET 0 0 0
												}
											}
										}
									}
								}
							}
						}
						JOINT RightShoulder_virtual
						{
							OFFSET 0.000000 0.000000 0.000000
							CHANNELS 3 Xrotation Yrotation Zrotation
							JOINT RightShoulder
							{
								OFFSET -2.196100 4.412496 0.070690
								CHANNELS 3 Xrotation Yrotation Zrotation
								JOINT RightShoulder_split
								{
									OFFSET -2.196100 4.412496 0.070690
									CHANNELS 3 Xrotation Yrotation Zrotation
									JOINT RightArm
									{
										OFFSET -8.771282 -2.981682 -0.094208
										CHANNELS 3 Xrotation Yrotation Zrotation
										JOINT RightForeArm
										{
											OFFSET -8.494598 0.000000 0.000000
											CHANNELS 3 Xrotation Yrotation Zrotation
											JOINT RightHand
											{
												OFFSET -18.483803 0.000000 0.000001
												CHANNELS 3 Xrotation Yrotation Zrotation
												End Site
												{
													OFFSET 0 0 0
												}
											}
										}
									}
								}
							}
						}
					}
				}
			}
		}
	}
}
MOTION
Frames: 10
Frame Time: 0.03333333
1.578789 30.076887 0.459171 0.000000 0.000000 0.000000 -2.430340 -48.815891 -2.581654 -39.631213 1.684218 13.671145 40.013243 -13.878765 0.435778 -1.933041 -1.443567 -4.037053 -4.317280 -3.100417 4.105739 0.000000 0.000000 0.000000 -2.761709 -47.836859 -2.148804 10.388077 -3.313528 -17.966720 30.892751 -0.657096 -0.680450 -32.919941 -13.463175 29.567988 -8.040447 1.421673 -0.364886 0.000000 0.000000 0.000000 -6.629604 -47.323427 -4.574950 10.846603 7.321607 0.287228 11.080037 9.838408 -3.806280 -1.202095 1.510327 0.403796 0.000000 0.000000 0.000000 11.743907 9.550736 -4.508443 -15.988944 -3.539603 3.276266 4.004074 22.863643 -6.403212 0.000000 0.000000 0.000000 13.345440 8.817444 -3.363217 0.264396 -3.552236 -9.784148 0.841477 1.813710 2.766204 -9.571551 -6.186624 -57.733376 9.242671 -58.842592 -0.346267 0.000000 0.000000 0.000000 10.369229 9.825106 -2.948474 1.165687 17.454115 7.086381 3.111496 -0.382553 2.564561 -18.059812 -20.529660 67.404637 4.406363 49.635920 -3.503415 0.000000 0.000000 0.000000 
1.777447 29.994633 0.375031 0.000000 0.000000 0.000000 -0.889724 -50.318509 -1.446450 -41.709339 -0.047875 14.346455 40.590390 -13.976223 0.629847 -0.945761 -1.115423 -3.609956 -2.987488 -2.879449 3.749218 0.000000 0.000000 0.000000 -1.260542 -48.320638 -1.089732 9.327976 -3.244581 -18.820204 33.425891 0.343602 -0.596763 -33.071834 -13.056444 29.532447 -6.148253 0.911902 -0.251524 0.000000 0.000000 0.000000 -4.503426 -48.448875 -3.239295 10.830408 7.531925 0.344361 11.370657 9.683683 -3.829615 -0.641385 0.179886 1.133432 0.000000 0.000000 0.000000 12.151248 9.407362 -4.555605 -15.998880 -2.293118 3.625903 3.630312 24.216557 -6.993138 0.000000 0.000000 0.000000 13.505231 8.620398 -3.591596 -0.000849 -4.686288 -8.527554 -0.669730 -0.990289 0.045738 -10.143877 -4.926114 -57.271877 6.648897 -52.663016 -1.716357 0.000000 0.000000 0.000000 10.434583 9.693548 -3.069730 0.753898 17.328818 7.233852 4.412001 -0.414940 2.381004 -15.865264 -20.509368 67.397622 3.912758 51.749102 -3.253801 0.000000 0.000000 0.000000 
2.048914 29.568943 0.114773 0.000000 0.000000 0.000000 2.263955 -51.275992 1.481010 -46.514756 -2.581645 14.435318 42.766038 -13.301049 0.822793 -0.284725 0.178030 -4.467391 -0.559062 -2.413524 2.598411 0.000000 0.000000 0.000000 1.719911 -48.658005 1.594829 4.422466 -2.993419 -20.674062 39.958085 1.116028 -0.205094 -33.953659 -12.768350 28.322590 -4.352924 0.335826 -0.096102 0.000000 0.000000 0.000000 -0.543686 -49.274453 0.032522 10.857806 7.584088 0.162029 11.967014 9.247020 -3.901427 -0.332829 -0.977437 0.849880 0.000000 0.000000 0.000000 13.033895 8.875790 -4.703483 -17.764403 -1.107916 4.597382 2.356391 26.775294 -7.902781 0.000000 0.000000 0.000000 13.877329 8.151375 -3.885618 -0.418288 -6.193221 -6.662689 -2.344110 -4.278646 -2.975934 -11.376045 -7.902876 -55.291515 7.825441 -45.100781 -0.098772 0.000000 0.000000 0.000000 11.006945 9.226494 -3.323397 -0.012851 17.078191 7.601591 4.812809 0.406679 2.355131 -13.685947 -18.807684 65.999893 2.574519 53.476403 -2.221124 0.000000 0.000000 0.000000 
2.347812 28.820488 -0.277588 0.000000 0.000000 0.000000 6.865771 -51.362739 6.004549 -53.263953 -5.317591 13.402256 46.489341 -12.152914 1.109966 0.035866 2.009974 -7.257213 1.369320 -1.868675 1.054004 0.000000 0.000000 0.000000 5.815629 -49.212657 5.719153 -3.837908 -2.575870 -23.548513 49.496059 1.718316 0.335669 -35.731148 -12.279936 26.092127 -2.832426 -0.260287 -0.041317 0.000000 0.000000 0.000000 4.992908 -49.455187 5.026506 10.769914 7.381667 -0.226653 12.702341 8.492260 -3.952988 -0.736495 -2.023519 0.650845 0.000000 0.000000 0.000000 14.131174 8.060316 -4.849197 -21.038494 -0.037866 5.947659 0.820198 30.112716 -8.917130 0.000000 0.000000 0.000000 14.365017 7.442133 -4.091539 -0.913220 -7.485378 -4.988554 -2.982964 -6.273148 -5.540431 -13.974683 -13.405305 -52.472419 10.354152 -38.371197 2.324657 0.000000 0.000000 0.000000 11.992730 8.422572 -3.625811 -0.974755 16.956179 8.411369 4.128157 2.155463 2.582528 -11.776939 -15.657944 63.393991 0.517524 54.204340 -0.335113 0.000000 0.000000 0.000000 
2.668135 27.789722 -0.767439 0.000000 0.000000 0.000000 12.169920 -50.528124 11.423188 -61.170307 -7.787405 11.615640 51.492431 -10.858493 1.466887 0.218059 3.707996 -11.619984 1.727573 -1.359733 -0.257325 0.000000 0.000000 0.000000 10.639071 -49.436035 10.905824 -14.662014 -1.829835 -27.386533 60.481591 2.258407 0.995939 -38.014183 -11.372792 23.780521 -1.811922 -0.849353 -0.223309 0.000000 0.000000 0.000000 11.517249 -48.846842 11.027270 10.418659 6.829730 -0.740216 13.510835 7.473088 -3.999109 -0.467827 -2.727298 0.224320 0.000000 0.000000 0.000000 15.140902 7.056893 -4.876022 -25.234549 0.876101 7.427540 -0.259549 33.634625 -9.921826 0.000000 0.000000 0.000000 14.821712 6.556940 -4.197873 -1.506238 -8.366726 -4.355601 -2.458431 -6.763768 -5.482177 -16.977004 -18.895865 -49.904176 12.637587 -34.625169 4.398544 0.000000 0.000000 0.000000 13.224679 7.361587 -3.864293 -2.138922 17.406498 10.117030 2.405339 4.768061 2.971042 -10.479001 -11.814642 59.792603 -2.286966 53.412598 2.339728 0.000000 0.000000 0.000000 
2.914099 26.560555 -1.114233 0.000000 0.000000 0.000000 17.482023 -48.670733 16.804362 -69.469963 -9.566712 9.849473 57.496669 -9.765367 1.718050 0.156667 4.745697 -16.382508 0.759682 -0.956498 -1.081478 0.000000 0.000000 0.000000 15.495531 -49.121887 16.377148 -26.305700 -0.672763 -31.821185 71.321908 3.129167 1.615335 -40.739118 -10.044545 22.388564 -1.419509 -1.404090 -0.691483 0.000000 0.000000 0.000000 18.147683 -47.820958 17.015471 9.836656 5.870342 -1.307456 14.260944 6.281650 -4.075502 0.198164 -3.232383 0.319923 0.000000 0.000000 0.000000 15.804113 5.939912 -4.778503 -29.704202 1.741886 9.003769 -0.344921 36.743785 -10.790812 0.000000 0.000000 0.000000 15.226256 5.551279 -4.292020 -2.259108 -8.767599 -5.243758 -1.269952 -5.747062 -3.761638 -19.448535 -22.135998 -48.190506 13.864101 -35.907343 5.960403 0.000000 0.000000 0.000000 14.450766 6.165786 -4.011462 -3.615494 18.728691 13.091424 -0.141988 6.991289 3.467360 -9.871964 -8.355470 55.534564 -5.454417 51.548476 5.285638 0.000000 0.000000 0.000000 
3.000887 25.142374 -1.306946 0.000000 0.000000 0.000000 21.686354 -46.211550 21.074002 -77.459563 -10.730833 8.898621 64.063793 -9.215074 1.792573 -0.306888 5.041711 -20.476173 -0.433244 -0.688075 -1.420541 0.000000 0.000000 0.000000 19.772452 -48.377222 21.305686 -36.910141 1.003632 -36.221012 80.980956 4.473537 1.797498 -44.855912 -8.630630 21.993194 -1.644197 -1.801842 -1.415983 0.000000 0.000000 0.000000 23.787040 -46.661728 21.956700 9.219283 4.644854 -1.828647 14.809575 4.982394 -4.210172 1.015605 -3.138114 0.924390 0.000000 0.000000 0.000000 15.945857 4.734984 -4.635183 -33.938684 2.813227 10.753782 0.659787 38.862636 -11.297161 0.000000 0.000000 0.000000 15.431983 4.462445 -4.475527 -3.090291 -8.858623 -7.338143 -0.430550 -4.194565 -2.086232 -21.348931 -22.761399 -48.101358 13.355641 -42.269859 6.832006 0.000000 0.000000 0.000000 15.440015 4.894961 -4.152370 -5.608457 20.806167 17.406710 -2.768196 8.548600 3.149079 -9.735989 -5.600537 51.724066 -8.571542 49.411815 7.705718 0.000000 0.000000 0.000000 
2.981361 23.541859 -1.321098 0.000000 0.000000 0.000000 24.076111 -43.615143 23.474713 -84.866248 -11.766495 9.380574 70.682267 -9.552489 1.624478 -1.118926 4.425651 -23.257329 -1.159317 -0.565277 -1.202600 0.000000 0.000000 0.000000 22.639519 -47.166582 24.477031 -44.523083 2.813296 -39.963853 88.802616 6.048133 1.483692 -50.946248 -7.552104 22.303020 -2.512385 -1.935253 -2.164248 0.000000 0.000000 0.000000 27.602949 -45.950231 25.208609 8.697447 3.391605 -2.139917 15.078624 3.726613 -4.493752 1.206575 -2.302886 1.158414 0.000000 0.000000 0.000000 15.664713 3.484824 -4.599569 -37.558114 4.121286 12.662593 2.538667 39.611392 -11.230708 0.000000 0.000000 0.000000 15.380628 3.361249 -4.886310 -3.909420 -8.746686 -9.458408 0.084083 -3.383661 -0.813882 -22.848122 -22.658005 -49.729897 11.558307 -54.361725 7.192830 0.000000 0.000000 0.000000 16.055162 3.615031 -4.398111 -8.234162 23.426871 22.622381 -4.241864 8.962053 1.879441 -10.698764 -3.393205 48.452512 -12.138912 49.716670 9.763398 0.000000 0.000000 0.000000 
2.834517 21.871155 -1.155243 0.000000 0.000000 0.000000 24.824524 -41.568910 24.044872 -91.262993 -12.953543 11.186625 77.308493 -11.000448 1.422439 -2.058581 2.939220 -25.103466 -1.440632 -0.545454 -0.538555 0.000000 0.000000 0.000000 23.890931 -46.011839 25.554642 -48.240079 4.424938 -42.646414 95.204743 7.746071 0.652177 -58.587573 -7.092893 22.943343 -3.633797 -1.743469 -2.655889 0.000000 0.000000 0.000000 29.431592 -45.903550 26.760592 8.355765 2.283910 -2.161833 15.107272 2.591749 -4.874909 0.820310 -1.198525 1.223495 0.000000 0.000000 0.000000 15.174239 2.292234 -4.761911 -40.521969 5.456095 14.718578 4.769076 38.684774 -10.253680 0.000000 0.000000 0.000000 15.036701 2.347464 -5.449358 -4.638171 -8.367193 -9.951699 0.358971 -4.130427 -0.317858 -25.627266 -23.121835 -52.264980 9.235419 -70.585729 7.294409 0.000000 0.000000 0.000000 16.179395 2.392587 -4.790975 -11.206386 26.147906 27.462927 -3.505627 7.747637 -0.007419 -13.828265 -0.655838 45.794376 -17.051378 55.653191 12.288669 0.000000 0.000000 0.000000 
2.524134 20.354347 -0.960684 0.000000 0.000000 0.000000 24.190549 -40.676454 23.127787 -96.048845 -14.336130 13.634607 84.141319 -13.027961 1.509931 -3.187699 1.149955 -26.114205 -1.442498 -0.579318 0.212021 0.000000 0.000000 0.000000 23.347888 -44.945479 24.526579 -48.226186 5.615143 -44.173804 100.500537 9.177416 -0.450812 -66.180578 -7.485283 23.548588 -5.073247 -1.181588 -2.555531 0.000000 0.000000 0.000000 28.928542 -46.154723 26.340949 8.120405 1.454902 -1.942311 14.926477 1.624395 -5.277918 0.208323 0.045285 0.805171 0.000000 0.000000 0.000000 14.693938 1.272066 -5.035033 -42.891211 6.337906 16.692892 6.805879 36.106371 -8.314662 0.000000 0.000000 0.000000 14.515766 1.542742 -5.937723 -5.194815 -7.431962 -7.515366 1.010561 -6.542799 0.191937 -32.229238 -25.059621 -55.076450 0.445449 -87.575613 1.032105 0.000000 0.000000 0.000000 15.886904 1.340056 -5.208211 -13.876124 28.533018 30.310679 -0.545696 6.125780 -1.887426 -20.629941 4.183392 43.728684 -27.115918 68.755116 19.268623 0.000000 0.000000 0.000000 
